#!OML:ASF H:\Dans Jumps\Project 1\Capture day 1\Session 1\subject.ASF
:FULLY-SPECIFIED
:DEGREES
123
root 0.455209 17.5225 -14.1861 6.25506 -0.734734 -1.62042
lowerback -1.35883 -0.304982 0.0886588
upperback 3.40932 -0.47017 1.57349
thorax 4.28636 -0.260486 1.54958
lowerneck -13.9361 -0.254018 -2.6127
upperneck 28.2854 -0.331572 2.20492
head 11.5177 -0.155908 1.21663
rclavicle -7.90169e-015 1.03368e-014
rhumerus -21.9706 -18.2646 -80.2205
rradius 22.5608
rwrist 35.6232
rhand -17.581 -25.9709
rfingers 7.12502
rthumb 8.67472 -55.7727
lclavicle -7.90169e-015 1.03368e-014
lhumerus -19.7019 5.43732 85.5064
lradius 17.0907
lwrist -2.15102
lhand -23.7067 -2.71031
lfingers 7.12502
lthumb 2.76059 27.2516
rfemur -13.8002 -2.12545 19.4402
rtibia 22.0872
rfoot -13.5653 -3.45654
rtoes 6.51664
lfemur -13.4268 7.17724 -17.7864
ltibia 20.8002
lfoot -11.4854 4.85163
ltoes -0.702174
124
root 0.455164 17.5213 -14.1893 6.26234 -0.723584 -1.62363
lowerback -1.31617 -0.307368 0.0938818
upperback 3.41326 -0.473479 1.58215
thorax 4.26636 -0.262077 1.55557
lowerneck -13.9421 -0.252226 -2.61941
upperneck 28.275 -0.324514 2.19699
head 11.5147 -0.154341 1.21574
rclavicle -1.59028e-015 3.57812e-015
rhumerus -21.9448 -18.2359 -80.2256
rradius 22.5714
rwrist 35.5909
rhand -17.5891 -25.9639
rfingers 7.12502
rthumb 8.66686 -55.766
lclavicle -1.59028e-015 3.57812e-015
lhumerus -19.6883 5.45459 85.5094
lradius 17.0858
lwrist -2.14675
lhand -23.706 -2.70317
lfingers 7.12502
lthumb 2.76129 27.2587
rfemur -13.8478 -2.12792 19.447
rtibia 22.1378
rfoot -13.5699 -3.47442
rtoes 6.45509
lfemur -13.4858 7.16755 -17.7849
ltibia 20.8702
lfoot -11.4985 4.85486
ltoes -0.720404
125
root 0.455132 17.5199 -14.1929 6.27172 -0.709204 -1.62874
lowerback -1.2697 -0.311566 0.100296
upperback 3.41807 -0.479283 1.59263
thorax 4.24519 -0.264904 1.56268
lowerneck -13.9501 -0.250788 -2.62862
upperneck 28.2598 -0.31654 2.18687
head 11.5102 -0.152873 1.21455
rclavicle -1.00386e-014 1.11319e-014
rhumerus -21.9183 -18.1956 -80.2317
rradius 22.5873
rwrist 35.551
rhand -17.5866 -25.9657
rfingers 7.12502
rthumb 8.66934 -55.7676
lclavicle -1.00386e-014 1.11319e-014
lhumerus -19.6725 5.47451 85.5122
lradius 17.0791
lwrist -2.13681
lhand -23.7174 -2.71192
lfingers 7.12502
lthumb 2.75025 27.2501
rfemur -13.9018 -2.12992 19.4562
rtibia 22.1942
rfoot -13.5752 -3.49682
rtoes 6.3746
lfemur -13.5536 7.15378 -17.7815
ltibia 20.9498
lfoot -11.5149 4.85878
ltoes -0.724697
126
root 0.45518 17.5185 -14.1969 6.28305 -0.691361 -1.63348
lowerback -1.21942 -0.317289 0.107475
upperback 3.42291 -0.487104 1.60329
thorax 4.22195 -0.268706 1.56947
lowerneck -13.9555 -0.248939 -2.63659
upperneck 28.2369 -0.307267 2.17328
head 11.5022 -0.151095 1.21195
rclavicle -2.43511e-015 1.07344e-014
rhumerus -21.8954 -18.1409 -80.2391
rradius 22.6095
rwrist 35.5001
rhand -17.5858 -25.9646
rfingers 7.12502
rthumb 8.6701 -55.7666
lclavicle -2.43511e-015 1.07344e-014
lhumerus -19.657 5.49423 85.5138
lradius 17.0708
lwrist -2.11885
lhand -23.7372 -2.73755
lfingers 7.12502
lthumb 2.73119 27.2247
rfemur -13.9629 -2.13254 19.4647
rtibia 22.2589
rfoot -13.5827 -3.51987
rtoes 6.30178
lfemur -13.6302 7.13534 -17.7789
ltibia 21.0387
lfoot -11.5331 4.86405
ltoes -0.72281
127
root 0.455339 17.5169 -14.2015 6.29916 -0.67025 -1.63791
lowerback -1.16473 -0.324068 0.116113
upperback 3.42681 -0.496301 1.61383
thorax 4.19524 -0.27313 1.57528
lowerneck -13.9608 -0.247129 -2.64333
upperneck 28.2075 -0.297637 2.15741
head 11.4917 -0.149277 1.20827
rclavicle 1.78906e-015 1.59028e-015
rhumerus -21.8757 -18.0736 -80.2473
rradius 22.637
rwrist 35.4418
rhand -17.5886 -25.9556
rfingers 7.12502
rthumb 8.66732 -55.7576
lclavicle 1.78906e-015 1.59028e-015
lhumerus -19.643 5.51091 85.514
lradius 17.0641
lwrist -2.09133
lhand -23.7594 -2.77717
lfingers 7.12502
lthumb 2.70967 27.1854
rfemur -14.0371 -2.13694 19.4733
rtibia 22.334
rfoot -13.5907 -3.54724
rtoes 6.20979
lfemur -13.7198 7.11586 -17.7781
ltibia 21.1367
lfoot -11.5515 4.86958
ltoes -0.728964
128
root 0.455706 17.5152 -14.2067 6.32154 -0.647565 -1.64009
lowerback -1.10836 -0.331339 0.125872
upperback 3.42992 -0.506093 1.62301
thorax 4.16675 -0.27778 1.57904
lowerneck -13.9627 -0.245225 -2.64825
upperneck 28.1715 -0.288292 2.14118
head 11.4779 -0.147415 1.20402
rclavicle -2.48481e-015 1.27222e-014
rhumerus -21.8604 -17.9934 -80.2566
rradius 22.672
rwrist 35.3731
rhand -17.5944 -25.941
rfingers 7.12502
rthumb 8.66174 -55.7433
lclavicle -2.48481e-015 1.27222e-014
lhumerus -19.6324 5.51885 85.5129
lradius 17.0607
lwrist -2.04762
lhand -23.7828 -2.82075
lfingers 7.12502
lthumb 2.68713 27.1421
rfemur -14.1261 -2.14213 19.4783
rtibia 22.4225
rfoot -13.604 -3.57122
rtoes 6.14851
lfemur -13.8237 7.09828 -17.7821
ltibia 21.2431
lfoot -11.5702 4.8733
ltoes -0.740558
129
root 0.456308 17.5132 -14.2124 6.34986 -0.6229 -1.64081
lowerback -1.04772 -0.33916 0.137416
upperback 3.43233 -0.516558 1.63107
thorax 4.13511 -0.282675 1.58065
lowerneck -13.9639 -0.241436 -2.64521
upperneck 28.133 -0.277723 2.12269
head 11.463 -0.144425 1.19771
rclavicle 1.78906e-015 -1.39149e-015
rhumerus -21.8475 -17.9078 -80.2657
rradius 22.7104
rwrist 35.3006
rhand -17.6093 -25.9108
rfingers 7.12502
rthumb 8.6474 -55.7137
lclavicle 1.78906e-015 -1.39149e-015
lhumerus -19.6244 5.52419 85.509
lradius 17.0575
lwrist -1.99707
lhand -23.7991 -2.85277
lfingers 7.12502
lthumb 2.67139 27.1103
rfemur -14.2319 -2.15145 19.4815
rtibia 22.5265
rfoot -13.6214 -3.59398
rtoes 6.08302
lfemur -13.9421 7.08207 -17.7899
ltibia 21.3587
lfoot -11.5902 4.87612
ltoes -0.764163
130
root 0.457123 17.511 -14.2188 6.3853 -0.598947 -1.63814
lowerback -0.983128 -0.346665 0.148382
upperback 3.43325 -0.526434 1.63756
thorax 4.09965 -0.287254 1.58102
lowerneck -13.9587 -0.23653 -2.63713
upperneck 28.088 -0.267327 2.10514
head 11.4443 -0.14085 1.19077
rclavicle 5.56597e-015 -1.66979e-014
rhumerus -21.8381 -17.8198 -80.2726
rradius 22.7531
rwrist 35.2253
rhand -17.6229 -25.8774
rfingers 7.12502
rthumb 8.63423 -55.6808
lclavicle 5.56597e-015 -1.66979e-014
lhumerus -19.6232 5.52538 85.502
lradius 17.0582
lwrist -1.93669
lhand -23.814 -2.88611
lfingers 7.12502
lthumb 2.65698 27.0771
rfemur -14.3564 -2.1592 19.4799
rtibia 22.6481
rfoot -13.6443 -3.61541
rtoes 6.04447
lfemur -14.0768 7.06837 -17.8038
ltibia 21.4844
lfoot -11.6111 4.87804
ltoes -0.7923
131
root 0.458103 17.5084 -14.2258 6.42659 -0.577259 -1.63306
lowerback -0.912133 -0.353963 0.157422
upperback 3.43331 -0.535851 1.64366
thorax 4.05967 -0.291649 1.58214
lowerneck -13.9468 -0.230453 -2.62526
upperneck 28.0331 -0.255838 2.08579
head 11.4204 -0.136587 1.18253
rclavicle 1.2921e-015 4.77083e-015
rhumerus -21.8332 -17.7313 -80.2762
rradius 22.8007
rwrist 35.1491
rhand -17.6301 -25.8452
rfingers 7.12502
rthumb 8.62734 -55.649
lclavicle 1.2921e-015 4.77083e-015
lhumerus -19.6284 5.52451 85.4918
lradius 17.0613
lwrist -1.86922
lhand -23.8298 -2.91395
lfingers 7.12502
lthumb 2.6417 27.0494
rfemur -14.5004 -2.16549 19.4755
rtibia 22.7889
rfoot -13.6709 -3.63836
rtoes 6.00468
lfemur -14.2272 7.0604 -17.8223
ltibia 21.6229
lfoot -11.636 4.87725
ltoes -0.82047
132
root 0.459165 17.5055 -14.2335 6.47374 -0.558016 -1.62667
lowerback -0.835128 -0.360276 0.165037
upperback 3.4341 -0.543828 1.64962
thorax 4.01702 -0.29537 1.58403
lowerneck -13.9349 -0.226234 -2.62134
upperneck 27.9729 -0.247406 2.0751
head 11.3946 -0.133434 1.17838
rclavicle -1.83876e-015 1.19271e-014
rhumerus -21.8298 -17.6512 -80.2754
rradius 22.8507
rwrist 35.0748
rhand -17.6354 -25.8128
rfingers 7.12502
rthumb 8.62216 -55.6168
lclavicle -1.83876e-015 1.19271e-014
lhumerus -19.6375 5.51861 85.4794
lradius 17.0681
lwrist -1.79152
lhand -23.8426 -2.95024
lfingers 7.12502
lthumb 2.6294 27.0133
rfemur -14.6657 -2.16651 19.4698
rtibia 22.9502
rfoot -13.7004 -3.66792
rtoes 5.94897
lfemur -14.3955 7.05706 -17.8438
ltibia 21.7771
lfoot -11.6646 4.87613
ltoes -0.859407
133
root 0.46019 17.5021 -14.2423 6.52857 -0.543464 -1.61929
lowerback -0.750476 -0.365492 0.168689
upperback 3.4351 -0.550156 1.6566
thorax 3.97028 -0.29841 1.58932
lowerneck -13.9303 -0.224097 -2.62974
upperneck 27.9105 -0.241732 2.07554
head 11.3696 -0.131405 1.18007
rclavicle 8.94531e-016 1.33186e-014
rhumerus -21.8298 -17.5762 -80.2695
rradius 22.9057
rwrist 34.9972
rhand -17.6291 -25.7923
rfingers 7.12502
rthumb 8.62826 -55.596
lclavicle 8.94531e-016 1.33186e-014
lhumerus -19.6499 5.50514 85.4658
lradius 17.0788
lwrist -1.70236
lhand -23.8576 -2.98571
lfingers 7.12502
lthumb 2.61485 26.978
rfemur -14.8554 -2.15631 19.4637
rtibia 23.1327
rfoot -13.7321 -3.70767
rtoes 5.87634
lfemur -14.5862 7.06059 -17.8682
ltibia 21.9499
lfoot -11.6979 4.87558
ltoes -0.910538
134
root 0.461168 17.4982 -14.2522 6.59251 -0.536385 -1.61236
lowerback -0.658202 -0.368223 0.17029
upperback 3.43576 -0.553027 1.66434
thorax 3.91881 -0.299795 1.59674
lowerneck -13.9303 -0.221278 -2.63557
upperneck 27.8417 -0.234085 2.07088
head 11.343 -0.128791 1.17967
rclavicle 8.94531e-016 -1.39149e-014
rhumerus -21.8352 -17.5049 -80.2591
rradius 22.9667
rwrist 34.9123
rhand -17.6183 -25.7823
rfingers 7.12502
rthumb 8.63866 -55.5856
lclavicle 8.94531e-016 -1.39149e-014
lhumerus -19.6666 5.48416 85.451
lradius 17.0954
lwrist -1.60339
lhand -23.8687 -3.00203
lfingers 7.12502
lthumb 2.60414 26.9618
rfemur -15.0718 -2.13399 19.4583
rtibia 23.336
rfoot -13.7664 -3.75364
rtoes 5.79543
lfemur -14.8021 7.07205 -17.8941
ltibia 22.1444
lfoot -11.7369 4.87668
ltoes -0.970828
135
root 0.462044 17.4939 -14.2633 6.66586 -0.532416 -1.60715
lowerback -0.556037 -0.369753 0.170921
upperback 3.4364 -0.554193 1.67369
thorax 3.86172 -0.300375 1.60649
lowerneck -13.9355 -0.218318 -2.63854
upperneck 27.7627 -0.224839 2.05966
head 11.3136 -0.125888 1.17649
rclavicle -1.73937e-015 -3.77691e-015
rhumerus -21.8432 -17.4361 -80.2437
rradius 23.0303
rwrist 34.8211
rhand -17.6135 -25.7719
rfingers 7.12502
rthumb 8.64334 -55.5749
lclavicle -1.73937e-015 -3.77691e-015
lhumerus -19.6872 5.46389 85.4337
lradius 17.1179
lwrist -1.5049
lhand -23.8749 -3.01796
lfingers 7.12502
lthumb 2.59818 26.946
rfemur -15.3147 -2.10408 19.4554
rtibia 23.5596
rfoot -13.8055 -3.80513
rtoes 5.71452
lfemur -15.0463 7.09015 -17.92
ltibia 22.3623
lfoot -11.7815 4.87805
ltoes -1.04804
